PathFileType	4	(X/Y/Z)	Patient4_TMGait_0pt3_01_right_28.trc.trc
DataRate	CameraRate	NumFrames	NumMarkers	Units	OrigDataRate	OrigDataStartFrame	OrigNumFrames
50.179211469534	50.179211469534	5	33	mm	50.179211469534	18	       141
Frame#	Time	Sacral			L.Shoulder			Chest			R.Shoulder			Neck			R.ASIS			L.ASIS			R.Thigh.Superior			R.Thigh.Lateral			R.Thigh.Inferior			R.Patella			L.Thigh.Superior			L.Thigh.Lateral			L.Thigh.Inferior			L.Patella			L.Shank.Superior			L.Shank.Lateral			L.Shank.Inferior			R.Shank.Superior			R.Shank.Lateral			R.Shank.Inferior			R.Heel			R.Midfoot.Superior			R.Midfoot.Lateral			R.Toe			L.Heel			L.Midfoot.Lateral			L.Midfoot.Superior			L.Toe			L.Elbow			L.Wrist			R.Elbow			R.Wrist			
		X1	Y1	Z1	X2	Y2	Z2	X3	Y3	Z3	X4	Y4	Z4	X5	Y5	Z5	X6	Y6	Z6	X7	Y7	Z7	X8	Y8	Z8	X9	Y9	Z9	X10	Y10	Z10	X11	Y11	Z11	X12	Y12	Z12	X13	Y13	Z13	X14	Y14	Z14	X15	Y15	Z15	X16	Y16	Z16	X17	Y17	Z17	X18	Y18	Z18	X19	Y19	Z19	X20	Y20	Z20	X21	Y21	Z21	X22	Y22	Z22	X23	Y23	Z23	X24	Y24	Z24	X25	Y25	Z25	X26	Y26	Z26	X27	Y27	Z27	X28	Y28	Z28	X29	Y29	Z29	X30	Y30	Z30	X31	Y31	Z31	X32	Y32	Z32	X33	Y33	Z33	

18	52.188785714286	695.498646609223	1006.730813482795	373.554856847191	944.603583164509	1440.290954129801	263.494375084265	982.313217626445	1361.188547672894	445.132104432996	847.930308690372	1433.135296470937	583.755587170251	876.043966910234	1494.636173161390	412.107291384956	891.369078372005	949.148069224690	547.164419329710	941.841743628382	959.391160128022	276.737558555392	968.477507747294	770.626230487061	527.701386812767	912.596386492811	651.030532660238	591.811821896095	1005.616413694339	608.208394417644	521.317815413649	1032.962602171217	522.637876570008	543.316391443509	953.343187246523	732.097113441051	315.047359380908	857.793958615650	622.876303011687	246.252145927122	919.337262174160	539.781706994243	324.091258113708	908.667064177058	470.708078904614	334.387977057486	871.644407740089	402.450611318350	325.142524847241	771.044872638883	298.177384307484	273.574155990430	799.668350222393	184.861342117224	351.604230347842	1007.342066289495	435.030141628259	553.467431588053	938.666787023483	329.187641810070	615.650516493928	1002.740760227483	235.468925557963	571.576211939280	894.608609557465	54.947445330087	541.912014145549	1059.564582295175	121.522133957741	593.029917180520	975.248725645945	47.764994677403	619.409690119479	1179.820894546577	78.104650303429	623.511225200286	654.591345953047	39.187419060804	394.979392902813	728.218713777340	35.529246888752	314.345035288071	813.050272648424	95.012555166014	341.568538228448	940.468070841517	40.031255382991	311.357355974442	1076.707933461785	1138.187303108261	115.452255754794	1319.516890720796	1061.447123546742	172.221425573947	658.349697479260	1131.002251718263	632.751162335808	597.428401527840	878.038621463016	648.134624896535	
19	52.208714285714	696.095215916620	1005.620239694463	374.774549975734	946.173634381595	1439.181105326608	267.688209114710	982.270994200456	1359.768115985190	449.462346719339	847.122956749561	1431.911694409097	587.221565272753	876.324781412481	1493.320595916202	415.861023623985	890.529271515187	947.204957469726	549.968710904362	943.135530172167	958.306246355194	279.656845628069	965.829681262533	767.151305855706	531.698500072113	906.964102329967	647.881354702131	593.957131481380	1000.621079492430	604.896063942943	524.575975775883	1027.449529908101	521.698830369880	545.012609725470	952.219613369510	730.631489503754	317.129807748889	855.568663869099	622.521617466023	247.192339814501	915.735646357413	538.549945856962	324.784651567236	904.070200319787	469.615449631008	334.826128818453	867.017781836386	401.712445007029	325.480121712993	765.907076062145	297.972217600357	273.681585480907	793.988047969105	184.443942666591	351.655305480308	1006.070016999460	433.950663786815	554.986608102706	942.439678079855	324.637227234120	617.313229250088	1010.999395050435	233.862524036143	572.957603572194	910.476200140362	49.707820152478	543.637177056097	1073.910267412151	120.787646889097	593.769502995956	991.884796054976	44.417502172459	620.296743474996	1195.777590610542	80.643930020852	623.076780731024	648.550862606801	39.010149358118	394.969704896465	722.150134817172	35.405003113214	314.329767433773	806.932970229194	94.915135482631	341.607862165698	934.395271991844	39.984285939427	311.400623157067	1082.885291730421	1139.936738729738	119.688009900716	1328.671156171080	1075.976959982847	178.692936217062	653.928088162035	1132.467911537215	633.186825067188	590.941448459102	879.780534728563	647.390361398571	
20	52.228642857143	697.102404564254	1004.070037212228	376.466637084856	947.346820047706	1437.819282246218	272.074906155565	982.258471947086	1358.225519624085	453.944753758199	846.454134870487	1430.380110201232	591.073577916267	876.435658295743	1491.736755914673	419.895197775929	890.265129606679	944.900893721198	553.016394186237	944.792482692642	957.020747682374	282.840588279502	963.944263632684	763.419219615461	535.824577538567	902.032145831075	644.354154714293	595.948120193481	996.488989854422	601.407574668484	527.782447736153	1022.478710835812	520.092974283896	546.622534194126	951.816224128443	729.019684422748	319.384465854543	854.085543301555	621.945712517503	248.466336821864	912.979404157975	537.157323685255	325.795310997286	900.381792738484	468.276728494107	335.598216834388	863.083261105534	400.715804530019	326.125839108322	761.243854489684	297.756148420288	273.998627152060	788.530352537945	183.908480170694	351.815409820134	1004.546209507346	432.208270407228	556.365213655020	944.756622599596	320.332288563926	618.367420551257	1016.800588990008	232.045047713990	573.851095736695	922.166459073165	45.857856493717	544.401587205617	1084.339249318010	119.682227481984	593.873449722708	1003.892270136426	41.916613116115	620.529643487217	1207.137940090838	81.735821544135	622.596182725088	642.494247323328	38.818434523741	394.943915078838	716.088415644146	35.267627376333	314.313251746640	800.816766891336	94.814776051890	341.662296823350	928.328402367778	39.920437903069	311.431969752049	1088.299872152214	1141.172132655633	124.194581898315	1336.325887824708	1089.142218727886	184.928151190051	651.314157694845	1132.588101306338	634.482800528990	587.448164780535	879.881740082730	647.710807569154	
21	52.248571428571	698.536509513714	1002.253477860652	378.651233182837	948.189197249498	1436.378754471647	276.674143858852	982.302386576387	1356.724451832615	458.610424769482	845.900118508681	1428.691567917330	595.301250529987	876.382376525990	1490.036549338206	424.216797638225	890.609486864520	942.444340282445	556.332529328368	946.823820499383	955.684736392116	286.328826168282	962.968557216852	759.720371444623	539.959258073190	898.115844542269	640.728585788545	597.784184345122	993.454157725151	598.023547763649	530.838484775313	1018.340385021706	518.040017506475	548.101711936235	952.063293888357	727.323650050891	321.841733685133	853.228642619580	621.244180380840	250.109056612944	910.931157511879	535.673659169810	327.164091839388	897.463980524762	466.765920678710	336.732150699601	859.717987821723	399.559157606344	327.089110873668	756.963723242223	297.603156132382	274.540338542647	783.260877110465	183.327243447490	352.082650604197	1003.028112229282	429.954144032285	557.590826990979	945.833074291182	316.344309447444	618.916243343049	1020.306392963197	229.973118689359	574.287567661879	929.636180992560	43.189727404531	544.372998710001	1090.964290032843	118.095664968001	593.359193515694	1011.350819713677	40.083810581959	620.251184513653	1214.137180886485	81.266313860283	622.003477031794	636.422558414569	38.653704255354	394.887626545377	710.039894944741	35.134541892665	314.291184530896	794.720241544422	94.727996128565	341.715256160933	922.276085820290	39.839186326909	311.445311035802	1092.910862403606	1142.017800835356	128.928398661368	1342.552170808435	1100.899004937865	190.902404937736	650.393419425611	1131.506698722663	636.650015224805	586.750240275660	878.512426336801	649.169699229765	
22	52.268500000000	700.378605255238	1000.345996834380	381.339337918082	948.785761483770	1435.017547349773	281.498788961874	982.436142082627	1355.401994584813	463.480874090469	845.457400485038	1426.991671893712	599.882819491933	876.194836004875	1488.363718463618	428.825084759918	891.562980547691	940.036957986867	559.934728226685	949.206078915229	954.435745123762	290.142968712915	962.989913970212	756.313410919984	543.998770752949	895.471837584447	637.280231726571	599.523212350419	991.668878204767	594.985596175017	533.680443700397	1015.250559599362	515.760635447170	549.448211887504	952.859994406361	725.616439916917	324.528117658495	852.877356842885	620.512404329142	252.138966545991	909.462295358470	534.175147691358	328.912862723906	895.191387302631	465.160271498190	338.231090376242	856.812885272756	398.345084261199	328.362219392873	752.987305936506	297.592473151078	275.312283752166	778.157699526990	182.780270660943	352.448129829123	1001.754328738734	427.373273594755	558.693696983227	945.971283869146	312.751243670353	619.131150149180	1021.821304989127	227.668020674387	574.353622427372	933.143185179515	41.491438327988	543.777390905429	1094.136475026049	116.016384192753	592.316575804079	1014.644518421476	38.760427601130	619.637222061161	1217.253732713961	79.298222145898	621.252435545119	630.341685922788	38.581787602002	394.786373822137	704.013380487068	35.035707867066	314.257749098855	788.672018738832	94.673676682796	341.747418106563	916.249143194802	39.739170767197	311.435289965801	1096.717103232038	1142.597406925196	133.836516953840	1347.463968487528	1111.242846673876	196.601368595448	651.002423035378	1129.430719958243	639.675085365385	588.596064893310	875.924216978952	651.816112643671	
